<?xml version="1.0" encoding="utf-8"?>
<!-- Svg Vector Icons : http://www.onlinewebfonts.com/icon -->
<!DOCTYPE svg PUBLIC "-//W3C//DTD SVG 1.1//EN" "http://www.w3.org/Graphics/SVG/1.1/DTD/svg11.dtd">
<svg version="1.1" xmlns="http://www.w3.org/2000/svg" xmlns:xlink="http://www.w3.org/1999/xlink" x="0px" y="0px" viewBox="0 0 1000 1000" enable-background="new 0 0 1000 1000" xml:space="preserve">
<metadata> Svg Vector Icons : http://www.onlinewebfonts.com/icon </metadata>
<g><g><path d="M959,897l-67-201h-73.5l40.8,196H140.7l40.8-196H108L41,897c-17,51.2,13.1,93,67,93h784C945.9,990,976,948.2,959,897L959,897z M745,255c0-135.3-109.7-245-245-245S255,119.7,255,255c0,234,245,490,245,490S745,489,745,255z M367.7,257.9c0-73.1,59.2-132.3,132.3-132.3c73.1,0,132.3,59.2,132.3,132.3c0,73.1-59.2,132.3-132.3,132.3C427,390.2,367.7,331,367.7,257.9z"/></g></g>
</svg>