<?xml version="1.0" encoding="iso-8859-1"?>
<!-- Generator: Adobe Illustrator 19.0.0, SVG Export Plug-In . SVG Version: 6.00 Build 0)  -->
<svg version="1.1" id="Layer_1" xmlns="http://www.w3.org/2000/svg" xmlns:xlink="http://www.w3.org/1999/xlink" x="0px" y="0px"
	 viewBox="0 0 300 300" style="enable-background:new 0 0 300 300;" xml:space="preserve">
<g>
	<g>
		<path d="M150,0C67.287,0,0,67.287,0,150v67.742c0,10.674,8.681,19.355,19.355,19.355v37.147l28.103,11.24h15.445
			c0,8.003,6.513,14.516,14.516,14.516s14.516-6.513,14.516-14.516V159.677c0-8.003-6.513-14.516-14.516-14.516
			s-14.516,6.513-14.516,14.516H47.458l-18.426,7.369V150C29.032,83.298,83.298,29.032,150,29.032S270.968,83.298,270.968,150
			v17.047l-18.426-7.369h-15.445c0-8.003-6.513-14.516-14.516-14.516s-14.516,6.513-14.516,14.516v125.806
			c0,8.003,6.513,14.516,14.516,14.516s14.516-6.513,14.516-14.516h15.445l28.103-11.24v-37.147
			c10.674,0,19.355-8.681,19.355-19.355V150C300,67.287,232.713,0,150,0z M72.58,159.677c0.001-2.671,2.168-4.838,4.839-4.838
			s4.839,2.168,4.839,4.839v125.806c0,2.671-2.168,4.839-4.839,4.839s-4.839-2.168-4.839-4.839V159.677z M227.42,285.483
			c-0.001,2.672-2.168,4.84-4.839,4.84s-4.839-2.168-4.839-4.839V159.677c0-2.671,2.168-4.839,4.839-4.839s4.839,2.168,4.839,4.839
			V285.483z M270.968,237.096v30.596l-14.516,5.806v-7.369h-9.677v9.677h-9.677V169.355h9.677v87.097h9.677v-84.789l14.516,5.806
			V237.096z M43.548,171.663v84.789h9.677v-87.097h9.677v106.452h-9.677v-9.677h-9.677v7.369l-14.516-5.806v-30.595v-59.627
			L43.548,171.663z M19.355,150v20.918v56.502c-5.337,0-9.677-4.34-9.677-9.677V150c0-42.397,18.929-80.434,48.745-106.185
			l1.863,1.398c2.192,1.645,4.587,2.869,7.074,3.687C38.081,72.876,19.355,109.292,19.355,150z M217.844,38.39
			C198.053,26.318,174.827,19.355,150,19.355c-24.827,0-48.053,6.963-67.844,19.035c-4.955,3.024-11.221,2.647-15.977-0.861
			C89.584,20.042,118.606,9.677,150,9.677s60.416,10.365,83.821,27.852C229.065,41.032,222.798,41.414,217.844,38.39z
			 M290.323,217.742c0,5.337-4.34,9.677-9.677,9.677v-56.502V150c0-40.708-18.726-77.124-48.005-101.1
			c2.487-0.818,4.882-2.042,7.074-3.687l1.863-1.398c29.816,25.752,48.745,63.789,48.745,106.185V217.742z"/>
	</g>
</g>
<g>
</g>
<g>
</g>
<g>
</g>
<g>
</g>
<g>
</g>
<g>
</g>
<g>
</g>
<g>
</g>
<g>
</g>
<g>
</g>
<g>
</g>
<g>
</g>
<g>
</g>
<g>
</g>
<g>
</g>
</svg>
